<svg xmlns="http://www.w3.org/2000/svg" viewBox="0 0 512 512"><path fill="#ff295b" d="M203 217.3c.2-29.1 24.4-52.5 52.9-52.5 28.5.4 52.7 23.6 52.5 52.7s-24 52.5-52.9 52.5-52.7-23.6-52.5-52.7zm176.4 43.8c-18.7 51.5-68 86.1-122.5 86.1h-.6c-57.6-.2-107.5-36.8-124.2-91.2-2.2-7.5-1.6-15.5 2-22.4 3.7-6.9 9.8-12 17.3-14.5 7.5-2.2 15.5-1.6 22.4 2s12 9.8 14.5 17.3c9.2 29.5 36.4 49.5 68 49.7h.4c29.9 0 57-18.9 67.2-47.2 5.5-15.3 22.4-23.2 37.9-17.7 15.2 5.7 23.1 22.6 17.6 37.9z"/><path fill="#fff" d="M362.1 255c-16.1 44.4-58.4 74.1-105.4 74.1h-.6c-49.3-.4-92.2-32-106.5-78.6-1.8-5.9 1.4-12.2 7.3-14s12.2 1.4 14 7.3c11.4 37.5 45.8 62.5 85.3 62.7h.4c37.7 0 71.5-23.8 84.3-59.2 2-5.9 8.5-8.8 14.2-6.7 6.2 2.2 9.3 8.5 7 14.4z"/></svg>
