<svg xmlns="http://www.w3.org/2000/svg" viewBox="0 0 413 50"><path fill="currentColor" d="M29.3.8V40h-8.6V.8zm10.4 10.8v4h.1a9 9 0 0 1 3.9-3.6c1.6-.8 3.2-1.2 4.8-1.2 2.1 0 3.8.3 5.2.9 1.3.6 2.4 1.3 3.1 2.4.8 1 1.3 2.2 1.6 3.6.4 1.5.5 3 .5 4.9V40h-7.8V24a10 10 0 0 0-1.1-5.3c-.7-1.1-2-1.7-4-1.7s-3.6.6-4.5 1.9c-1 1.3-1.5 3.3-1.5 6.2v15h-7.8V11.5zM67.4 33c.4.6.8 1 1.4 1.5.5.3 1.1.6 1.9.8a8.9 8.9 0 0 0 4 .1l1.6-.6A3.1 3.1 0 0 0 78 32c0-1.2-.8-2.1-2.3-2.7-1.6-.6-3.8-1.2-6.5-1.7a38 38 0 0 1-3.4-1c-1-.3-2-.8-2.9-1.3a6 6 0 0 1-2.8-5.3c0-1.9.4-3.4 1.1-4.5a7.9 7.9 0 0 1 2.8-2.8c1.2-.7 2.5-1.2 4-1.5a24.4 24.4 0 0 1 9 0c1.4.4 2.7.9 3.9 1.6a9 9 0 0 1 2.8 2.7A9.3 9.3 0 0 1 85 20h-7.4c0-1.5-.7-2.5-1.7-3-1-.6-2.2-.8-3.6-.8h-1.4l-1.4.4a3 3 0 0 0-1.1.8 2 2 0 0 0-.5 1.4c0 .7.3 1.3.8 1.7a6 6 0 0 0 2 1 130.6 130.6 0 0 1 9.4 2.4c1.1.4 2 1 3 1.5a7 7 0 0 1 2 2.3c.5.9.7 2 .7 3.3a9 9 0 0 1-1.1 4.7 9 9 0 0 1-3 3 12 12 0 0 1-4.1 1.7 24.3 24.3 0 0 1-9.6 0c-1.6-.4-3-1-4.2-1.7a9.4 9.4 0 0 1-3-3 9.5 9.5 0 0 1-1.3-4.8h7.4c0 .8.2 1.6.5 2.2zm28.3-21.4v3.6c1-1.5 2.3-2.6 3.7-3.3 1.5-.7 3.1-1 4.9-1 2.2 0 4.1.4 5.7 1.2a13.5 13.5 0 0 1 6.4 8.2 21.6 21.6 0 0 1 0 11.3 14 14 0 0 1-2.3 4.7 11.8 11.8 0 0 1-9.4 4.5 11 11 0 0 1-4.9-1.1 9.2 9.2 0 0 1-3.6-3.2H96V50h-7.8V11.6h7.4zm10.1 22.6c.9-.6 1.6-1.2 2.1-2 .5-.9 1-1.8 1.1-3a17 17 0 0 0 0-6.6 9 9 0 0 0-1.2-3 6 6 0 0 0-5.3-2.9 6 6 0 0 0-3.2.8 7.6 7.6 0 0 0-3.2 5 19 19 0 0 0 0 6.8c.3 1 .7 2 1.2 2.8a5 5 0 0 0 2.1 2c.9.6 2 .8 3.2.8a6 6 0 0 0 3.2-.7zm13.9-27V.8h7.8v6.4h-7.8zm7.8 4.4V40h-7.8V11.6zm10.5 0V17h.1a9.6 9.6 0 0 1 3.6-4.4c.8-.5 1.7-1 2.6-1.2 1-.3 1.9-.5 2.9-.5l1.7.3v7.3a14.8 14.8 0 0 0-2.8-.3c-1.4 0-2.7.2-3.6.7-1 .5-1.8 1.1-2.4 2a8 8 0 0 0-1.3 2.8c-.3 1.1-.4 2.3-.4 3.6V40h-7.8V11.6zm20.2 21.6c1.2 1.2 2.8 1.7 5 1.7a7 7 0 0 0 4.1-1.2 4.9 4.9 0 0 0 2.1-2.5h6.9a13 13 0 0 1-5 7.4 16 16 0 0 1-8.3 2.2c-2.3 0-4.3-.4-6-1.1a12.6 12.6 0 0 1-7.5-7.8 17.3 17.3 0 0 1 0-12 14 14 0 0 1 13.5-9c2.4 0 4.5.4 6.3 1.3 1.8 1 3.3 2.2 4.4 3.8s2 3.4 2.5 5.4c.5 2 .7 4.1.6 6.3h-20.5c0 2.6.7 4.4 1.9 5.5zm8.8-15c-1-1-2.3-1.5-4.3-1.5-1.2 0-2.2.2-3 .7a6 6 0 0 0-3 3.5c-.3.7-.4 1.3-.4 1.9H169a9 9 0 0 0-2-4.5zm32.8 18.2a8 8 0 0 1-3.6 3.3 12 12 0 0 1-5 1 11.3 11.3 0 0 1-9.6-4.6c-1-1.3-1.8-3-2.4-4.8a20.4 20.4 0 0 1 0-11.2c.6-1.8 1.3-3.4 2.4-4.8 1-1.3 2.3-2.4 4-3.2a11.3 11.3 0 0 1 10.2-.2c1.6.7 2.8 1.8 3.6 3.2h.1V.8h7.9V40h-7.5v-3.6zm-.3-14c-.2-1.1-.6-2-1.1-2.9s-1.3-1.5-2.1-2a6 6 0 0 0-3.2-.8 6 6 0 0 0-5.4 2.8 9 9 0 0 0-1.1 3 15.6 15.6 0 0 0 0 6.6c.3 1.1.7 2 1.3 3s1.2 1.5 2.1 2c.9.6 2 .8 3.1.8a6 6 0 0 0 3.2-.7 5 5 0 0 0 2-2.1c.6-.9 1-1.8 1.2-3a20 20 0 0 0 0-6.7zM232.6.8v32h19.2V40H224V.8zm22.2 15a9.4 9.4 0 0 1 3-3 15 15 0 0 1 4.2-1.5 23.9 23.9 0 0 1 9-.2c1.6.2 2.9.6 4.1 1.2a8 8 0 0 1 3 2.5c.7 1 1.1 2.4 1.1 4.1v14.8a22.2 22.2 0 0 0 1 6.3h-7.9a11.1 11.1 0 0 1-.5-2.7 10.2 10.2 0 0 1-4.4 2.7 17.6 17.6 0 0 1-9 .3 8.7 8.7 0 0 1-3-1.6 7.1 7.1 0 0 1-2.2-2.6 9 9 0 0 1-.7-3.8c0-1.6.3-3 .9-4a8 8 0 0 1 5.2-3.9 33.2 33.2 0 0 1 7-1.2l3-.5c.9-.2 1.6-.5 2.1-1s.8-1 .7-1.8c0-.8-.1-1.5-.4-2s-.6-.9-1-1.1c-.5-.3-1-.5-1.7-.6l-2-.1c-1.5 0-2.7.3-3.6 1s-1.4 1.7-1.5 3.3h-7.8a9 9 0 0 1 1.4-4.6zm15.4 11-1.6.4-1.8.3a32.5 32.5 0 0 0-3.6.7c-.6.2-1 .4-1.5.8l-1 1.1c-.3.5-.4 1.1-.4 1.9 0 .7.1 1.2.4 1.7.3.5.6.9 1 1.1s1 .5 1.6.6l1.8.2c1.5 0 2.7-.3 3.6-.8s1.4-1.1 1.8-1.8a6 6 0 0 0 .8-2.2l.1-1.8v-2.9c-.3.3-.7.5-1.2.7zm20.3-26V15h.1c1-1.5 2.2-2.6 3.9-3.2 1.6-.7 3.3-1 5-1a10.8 10.8 0 0 1 8 3.5c1.2 1.2 2.1 2.8 2.8 4.7.7 1.8 1 4 1 6.7 0 2.6-.3 4.8-1 6.7-.7 2-1.6 3.5-2.7 4.7a10.8 10.8 0 0 1-8 3.6c-2.1 0-4-.4-5.6-1a7.1 7.1 0 0 1-3.8-3.4V40h-7.5V.8zM303 22.4a9 9 0 0 0-1.2-3c-.5-.8-1.2-1.4-2-2s-1.9-.7-3-.7a5.8 5.8 0 0 0-5 2.8c-.6.8-1 1.8-1.3 2.9s-.4 2.2-.4 3.5a12.6 12.6 0 0 0 1.6 6.3c.6.8 1.3 1.5 2.1 2s1.8.7 3 .7a5.7 5.7 0 0 0 5-2.7c.6-.9 1-1.8 1.2-3s.4-2.2.4-3.3a13 13 0 0 0-.4-3.5zM321.2 33c.3.6.7 1 1.3 1.5l1.9.8a8.9 8.9 0 0 0 4 .1c.6-.1 1.1-.3 1.6-.6s1-.7 1.2-1.1.5-1 .5-1.7c0-1.2-.7-2.1-2.3-2.7a37 37 0 0 0-6.5-1.7l-3.3-1c-1.1-.3-2-.8-3-1.3a6 6 0 0 1-2.8-5.3c0-1.9.4-3.4 1.1-4.5a8 8 0 0 1 2.9-2.8c1.1-.7 2.5-1.2 4-1.5a24.4 24.4 0 0 1 9 0c1.4.4 2.7.9 3.8 1.6a9 9 0 0 1 2.8 2.7 9.3 9.3 0 0 1 1.4 4.4h-7.4c-.2-1.5-.7-2.5-1.8-3-1-.6-2.2-.8-3.6-.8h-1.4l-1.4.4c-.4.2-.8.5-1 .8-.4.3-.5.8-.5 1.4 0 .7.2 1.3.7 1.7.6.4 1.2.8 2 1l2.9.8a129.6 129.6 0 0 1 6.6 1.7c1 .3 2 .8 2.8 1.4s1.6 1.4 2 2.3c.6.9.8 2 .8 3.3a9 9 0 0 1-1 4.7 9 9 0 0 1-3 3 12 12 0 0 1-4.2 1.7 24.3 24.3 0 0 1-9.6 0c-1.5-.4-3-1-4.2-1.7a9 9 0 0 1-4.3-7.8h7.4c0 .8.2 1.6.6 2.2zM3 18.4v14.5l13.4-7.3z"/></svg>
