<svg xmlns="http://www.w3.org/2000/svg" xml:space="preserve" style="enable-background:new 0 0 500 500" viewBox="0 0 500 500"><path d="M0-1v501h500V0L0-1z" style="fill:#fff"/><path d="M0-1v501h500V0L0-1zm468 209c-1 15-7 35-11 47-17 54-38 85-85 85-14 0-39-3-47-27l-3-7-4 5a77 77 0 0 1-60 30c-18 0-33-6-42-17l-3-4-2 3a65 65 0 0 1-48 17c-14 1-29-4-39-15l-3-2-2 2a60 60 0 0 1-46 15c-24 0-40-14-40-36 7-46 23-89 46-128 8-14 22-22 38-22 11 0 19 3 23 7s4 8 5 16v12l6-9c15-24 39-27 63-27 16 0 31 6 37 16l2 3 3-3c14-10 31-16 49-15 20 0 35 4 45 15l5 8 3 4 3-4c13-15 33-24 54-23 18 0 32 4 40 14 11 12 13 28 13 40z" style="fill:#ffed00"/><path d="M0-1v501h500V0L0-1zm481 228c-2 18-14 52-21 66-17 35-41 63-86 63-24 0-44-8-56-22a90 90 0 0 1-60 23c-16 1-32-5-44-14a88 88 0 0 1-50 14c-15 0-30-4-43-13-14 9-32 14-49 12-30 0-52-19-55-47v-8c7-47 24-93 49-133 10-19 30-31 52-30 23 0 31 8 36 16 18-16 43-16 60-16 19 0 31 5 42 12 15-8 32-13 49-12 24 0 43 5 55 18 16-13 36-19 56-18 27 0 45 10 56 24 15 22 12 42 9 65z" style="fill:#e3000b"/><path d="M415 150c-22-1-43 8-57 25-1-3-3-6-6-8-9-12-26-17-47-17-22 0-39 6-51 17-6-10-22-17-40-17-24 0-50 3-66 28 0-9 0-14-6-19-6-7-16-8-25-8-17 0-32 9-40 23a335 335 0 0 0-48 133c2 21 17 36 43 36 22 0 38-4 49-16 11 11 26 17 41 16 20 0 40-5 51-18 11 13 27 20 44 19 25 0 48-11 64-31 8 22 27 31 50 31 49 0 71-34 89-87 5-16 9-33 10-50 2-27-10-57-56-57h1zM89 285c25-5 32 4 31 12-3 26-26 32-46 31-15 0-28-7-29-23 0-31 30-100 45-123 6-10 14-16 27-16s16 7 16 14c-1 20-34 81-44 105zm82-24-7 24c8-2 16-3 25-3 13 0 21 5 21 15 0 24-28 32-46 32-21 0-39-12-39-34 2-33 12-65 27-94 16-32 34-36 63-36 13 0 27 5 27 17 0 16-14 23-28 24h-20l-10 20c26-4 37 2 32 17-6 20-24 22-45 18zm127-64c-6 0-11 5-14 10-12 22-21 46-27 70-2 12 4 15 10 15 8 0 19-10 22-26 0 0-17 0-12-16 4-14 13-17 28-18 28-1 25 20 23 32-7 36-34 65-71 65-24 0-40-14-40-40 0-18 9-47 16-63 16-36 32-61 72-61 25 0 44 8 41 32-2 16-10 26-25 28-4 0-22 0-16-17 1-6 2-10-6-10l-1-1zm155 31c-5 22-14 47-24 66-18 31-39 35-57 35s-39-8-39-35c0-21 9-49 16-67 13-35 26-62 68-62 48 0 39 44 36 63zm-35-21c-6 26-15 52-27 76-3 5-6 9-12 9-5 0-7-3-7-8 5-28 15-55 28-80 3-4 7-5 11-5 7 0 7 4 7 8z"/></svg>