<svg version="1.1" xmlns="http://www.w3.org/2000/svg" viewBox="0 0 512 512">
<g transform = "scale(1.33 1.33) translate(-422 -64)" >
	<g id="_wash">
	  <path d="m522 302 2-84v-16l1-1v-1l-1-4v-6l1-3v-2l1-1v-2l-2-3v-5l1-1 2-2h1l1-2-1-1v-2l1-1 1-2v-1l-2-2 2-2 2 1 1 2 2 1 3-1h6l4-1h7l3-1h8l2-1h4l1 1-1 1h-2l-2 1h-4v1h-1l-2 1-2 1-2 1-2 1h-1l-2 1v1h-2l-1-1h-1v1l-1 1h-3v2h3l2 1-1 2v3l2 1 1-1v-1c0-1 0-2 2-2l1-2v-1h-1l-1-1v-2l2 1v1h2l2 1 1 1 1-1v-1l1-1h1l1 1 1 1h1v-1l1-1h1l4 2h4v2h1l2-1 1 1v1h2v-2l-1-2-1-2 2-2 2 1h2l1 1v3h2l2-2h1l1-1v1h1v-1l1 1h1l1 1 1-1 1-1 1-1h2l-1 2-1 2h1v-1h3l1 1 1-1 1-2 1-2v-2h2l1 1h1l2-2 1-1 2-1 1-1v-2h-5v-1l3-1 3 1 1 1v3c1 1 3 2 4 1l2-1h1v-1h-1l-1-1-1-2 1-1h6l1 1-1 1h-2v1l-1 2v2h4v1h2l1-1-2-1-1-1 1-3 1-1v-1h32l1-1 2 1h3l3-1h16l2 1h12v2l1 1h2v-1l1-1h1v1l-1 1v2l-1 1h-1v2l2 1c0 1 0 0 0 0l3-1 1 1 1 2h1l3 1 2 1v3l-2 6-1 5 1 3v5l-1 5v9l-3 60-1 7 1 7v7l-1 3 1 2v3l1 7v1l-1 4-1 3-1 1-2 2v2l-2 3-2 2v6l-1 2v5l1 2v6h-1l-1 2 2 1v1l1 1v2l-1 1-1 1c0 2 0 2-2 3l-1-1-1-1h-1v1l-1 3h-1l1 1 1 2v4l-1 1-2 2h-2v1l-3 1h-2c-1 2-2 2-3 2h-2l-1-1h-3l-2 1h-1l-2 1h-7l-2 1h-10l-2-1-2 1h-1l-2 1h-3l-2-1h-2l-2 1h-17l-1-1h-9l-2-1h-10l-1-1-1 1-2-1h-2l-2 1-1-1-3-1h-11l-4-1h-4l-1-1h-6l-2-1h-9l-3-2-4-1-1-1-3-2-1-1-4-1h-1v-3h-1v1h-2l-2-1h-1v-1l-1-2-1-2v-1l-1-3-1-2-1-1v-2l1-8 1-1v-12l-1-2v-3l-1-2-1-4v-5h-1" opacity=".2" fill="#a29934"/><path d="M522 296v-4l1-1 1-2v-2l1-2v-9l1-3v-2l2 2v11l-1 3-1 2v2l-2 3-1 2h-1" opacity=".2" fill="#a29934"/><path d="m714 216-1 2v2l-1 1v26l-1 4v19l-1 4v1l-2 2-1 1-2 2-1 2-1 2-1 3v2l-2 2v2l1 3-1 1-1 2-1 1c-1 0-1 0 0 0v1l1 2v1l1 2v1l-2 1-1 1v1l-2 3-1 1-1 4v1l-1 1-2 1h-1v4l-1 1-1 2-1 1-2 2-1 2-2 2h-5l-1 1-1 1-1 1v1l-5 2-4 2-3 1-2 1-2 2h-1l-1 1h-2l-2 2h-1l-2 1-1 1h-1l-2 1v1h-3l-1 1h-2l-1-1h-2l1 1h1l-1 1h-1v-1h-3v1l-1 1-3 1h-6l-4 1h-6l-3-1h-3l-4-1h-16c1 0 0 0 0 0h-6l-1 1c-1 0 0 0 0 0v1l-1 1-1 1-1 1-2 1-1 1h-1l-1-1h-2l-2 1h-3l-4-1h-9l-2-1-2-2-2-6-2-4v-1l-2-1-1-2v-1l1-1-1-1h-1v-1l1-1h1l3-1v-2l-1-1h-2v-5l-1-2h-1l-3-1-1-1-1-1-1-1-2-2h-1l-1-2v-3h-1l-1-2v-1l-1-2a12 12 0 0 1-2-5l-1-3-1-2h1l2 1 1 2 1 1 2 2 2 3 1 2 2 2 2 2 1 1 2 2 1 1 1 2h3l1 1 2 1 2 1h3l2 2-1 3v3l-2 4-3 3-1 3v4l1 2 2 2h1l1 1-1 1h-1v1l1 1h2l1-1 1-2h4l2-1 1-1h4v-1h2l1-1 3-1h3l1-1 3-1h4l2-1h5l1 1 3 1 1-1 3-1 1 1h6l2-1h3c1 2 2 2 3 1h2l2-1h2l2-1h5l2-1 4-1v1h1l3-1 1-1 3-3h4l1-2 1-2 1-1 1-1v-2l2-1h1l1 2v2l-1 2 1 1h2l1-1 1-1v-4l1-1h1v-3l-1-1v-1l-1-1v-1c0-1 0 0 0 0h1l1-1v-1l1-2v-2h-3l-1 3v2l-2-1v-2l1-1 1-2 1-2h2l4-1 2-1 2-1 1-1 1-1h7c1 0 2 0 2-2v-1l4-4v-2l1-2 1-2c1 0 2-1 2-3l1-1 2-4 2-1 1-1h1l2-3 1-1v-2l-1-1-1-1-1-2v-2l-1-1-1-1h-1l-1 2-1 1h-2v1l-1-1-1-3v-3h-2l-1-2 1-1-1-1-3-1h-1v1l-2 2h-1l-1-1h-2v1l-3 3v3h-1l-1-1h-5v2h-1l-1-1-1 1h-3l-1 1v1l-1 2h-2l-1 1-1 2-1 1h-2l-1-1c-1-1-2 0-2 1l-1 2-1 1-2 1h-2l-2-1 1-1h1l1-1-2-1-1 1-1 1h-1l-2 1h-1l-1-2-4-3h-1l-1-1v-1h-1l-1 1h1l-1 1-1 1c0 1 0 0 0 0l-1-1v-2l-2-1-1-1h-1v1l-2 1h-2v-1l1-1-1-2h-1l-1-2 1-1v-1l2 1 1 1 1-1 1-1v-1h1v-2h-1v1l-1 1h-1l-1-2v-1h-1l-1-1-1-2v-1h1v-3l1-2h2v-2l-1-1h-1v1l-1 1-1-1c-2 0-2-1-2-3h1v-2l-1 1h-2v-2l-1-1-1 1-2 1c0 1 0 0 0 0h-3l-2 1h-8v2l1 1v2c-1 0-2 0-3-2v-3l-1-1h-1v1l-2 1-1-1v-2l-1-1h-1l-1 1-1 1v2l2 2 1 1h-2l-1-1-1-1v-2h-3l-1 1v3h1v1h-2l-3 1-1-1-2-1-1 1h-2l-1-1-1 1-1 1-1 2h-2l-1 1-1-2h1l2-1v-1l1-1h-4l-2 2-2 1h-5l-2 1-1 1-1 1-1 1h-1l-2-1v-1l-1-2-1-1-2 1-2 2v3h-1l-3-2-1-3 2-4 1-1 1-1h4l2-1-1-1v-1l-1-3-1-1v-1l-1-2v-1l1-1h1l1-1-1-1-1 1-1 1h-1l-1-3v-1l-1-1v-2h1v-2l-1 1-2-1v-1l-1-3v-3l-1-3v-1l2-2 1-1v-3h1v2l1 1 2-1 1-1 1-1h1l2 1v-1l1-1c0-2 1-3 2-3h2l2-1 2-1 1-2v-1h1l2 1 3 1 1-1 2-1 1-1h2l1 2h1l1-1v-3l1-1 1-1 3-1 1-1h2v2l1 1h2v-3h2v1l-1 2 2-1h1v-1l2-2h2l1 1 2 1 1 1h4l1-1 1-1 2-1 1-2h2l1 1v1l-1 1 1-1h5l1-1 4-1 1 1v1l2 1 3-1 2 1 1 1h2s1 0 0 0l1-2 1-1 1 1h1v3l1 1v1h2l1-1 1-1v1h3l1-1-1 2v1l1 1h2v-1l1-1h5l1-2 1-1c1-1 2 0 2 1v1l1 1 1-2 1-1 1 1h1l1-2-1-1-1-1 1-1 1 1v1l1 1h2l1 1 1-1v-2 1h3v-1h2l2 1 1 3h-2v2l2 1h5v3l-1 1h3l1-1h1l1-1 1-2 2 1v3h1v1l2 1h1l1-2 2-1h1l1 1v3l-1 1h-1l-1 1v1l2 1h1l1-1v-2l3-3 1-1h2v1h-1l-1 2v1l-1 2v1l-1 3 1 1s-1 0 0 0l1 1h2l2-2h1v2l1 1h1l3-2h1v-1l1-1 2 1 1-1v-2l2-1 3-3 2-2v-3l-1-1v-2l1-2v-4l2-1h1v1l-2 1v2l1 1v4l1 2v4l-1 4 2 1" opacity=".2" fill="#a29934"/><path d="M524 202v16l1 2v3l1 5v2c1 1 1 2 2 1h2l-1 2v2l1 3v1h1l1-1h1l1 1-1 1-1 3v1l1 1 1 4 1 1v2l-2 1-2-1h-2l-1 1-2 4v2l1 2 2 2h1v-3l2-2 1-1c2-1 2 0 3 1l1 2 1 2c2 0 2-1 2-2l2-1 4-1h3l2-1 2-2 1-1h3v2l-3 2v1h1l2-1 1-1c1-2 1-2 3-2h2l2-1 1 1 1 1 4-1-1-2 1-1c0-2 1-2 3-2 1 1 2 1 1 2l1 2h1l1 1v-1l-2-3 1-3h2l1 1v3h2v-1l2-1v1l1 4h2v-1l-1-2 1-2 2 1h1l1-1h9l2-2h1v2l1 1v-1h3v1l-1 1v1c-1 1 0 1 1 2l2-1h1l2 1-1 2-1 1-1 1-1 4 2 3h1v1l1 1h1l1-1 1 1v1l-2 2c0 1-1 2-2 1l-1-1h-2v2l1 1 1 2v1l1 1 2-1 1-1h1l1 1 2 2v1l1 1 1-2v-1h1l2 2 5 4 1 1h1l3-2h1l1-1h2v2h-1l-1 1h-1 1l2 1h1l1-1 2-1v-1l1-1c0-2 1-2 3-1h2l1-2 2-2h1l1-2 1-2h6v-1h3v-1l3 1h1v-2l3-3 2-2 1 1h2l1-1 1-2h1l2 1c1 0 2 1 1 2v2h2l1 2v2l1 2 1 1 1-1 2-1v-1l2-1 1 1v2l1 2v1l1 1 1 2v3h-1c0 2-2 3-4 4l-1 1-3 4-1 1v2l-1 1-2 2v2l-1 2-3 4-1 2-2 1h-5c-1-1-2 0-2 1l-1 1-3 1-1 1h-1l-4 1h-2l-2 4v1l-1 1 2 1 1-4 2-1 1 2v1l-1 2-1 2v3l1 1v3l-2 2v4l-1 1h-3l-1-1 1-2-1-2v-1l-1-1-1 1c0 2-1 3-3 4v2l-2 2h-3l-3 2-1 1-1 1c-1 1-2 2-3 1h-5l-5 1-2 1h-2l-2 1h-7l-2-1c-1 1-2 2-4 1h-6l-3 1h-3l-1-1h-9l-2 1-4 1h-4l-2 1-2 1-1 1-2 1h-4l-3 1-3 1-1 1-1 1-2 1-2-2 1-1 1-1h1-1l-1-1-2-2-1-2-1-2v-3l3-3 2-3 1-4 1-2v-3l-1-2c-2 1-2 0-3-1h-2l-2-2h-4l-2-2-1-1-1-3-1-1-3-2-2-2-1-2-2-2-1-2-2-2-1-2h-2v2l-1-3v-4c-1-2 0-4 1-6v4l2 1h4l2 1 2 1c0 1 1 2 2 1l1-1-1-1-1-1-1-1 1-1 1-1 1-1c1-1 3-1 4 1l2 3c2 0 3 1 3 2h2l4-3h2l2 1 1 1 1 1 1-1 1-2 2-2 1-2v-4l1-2h3l1 1h1v-6l2-4v-1h-1l-1 1-1 2-3 2-1 1-1 2h-2c0-2 0-3 2-4l1-1v-1l1-1v-1l-1 1v1l-2 2-2-1v-2h-8l-1 1h4l-1 2v2l1 2-1 1h-2v-2l-1-1h-1l-1 1-1 1-2 1h-1l-1-1h-1l-1 1-1 1 1 2h-2l-2-1-1-3s1 0 0 0c0-1 0 0 0 0-2 0-2 0-2-2l1-1-1-2c-3 0-3-2-3-4h1l-1-2-2 1-2-2 1-1h2l1-1h1l-1-1h-1l-2-3v-1h-2l-2-1v-3l1-2v-1l1-2 1-2v-2l1-2 1-1 1-2v-1l1-1-1-1v-2l-1-2-1-1v-1l-1-3v-1l-1-3v-2l-1-3v-13l-1-3 1-3v-2l1-3" opacity=".4" fill="#a29934"/><path d="M568 300h2l1-1h3l1-1h1l1-1h1c0-2 1-2 2-2h2v1l1 1h1v-2h1l2 1 2-1 1-1 1-1h1l3 3h1l2-2 2-1c1 1 2 1 1 2v1c-1 1 0 2 1 2h1l2-3v-1h1l2 1h1l1-1h6l1 1h2l1-1h1l1-1 1-1 1-1 1 1v2l1 1h1l1-1v-2h1l1 1v1l1-1h1l2-1h6l2 1h1v5l-1 2v2l-1-1v-2c1-1 0-1-1-1h-1l-1 2-1 3 1 1h1v3c2 0 2-1 3-2l1-1h2l1-1 1-1h1v3h-1l-1 2h-3l-2 1v1l-2 1h-5v-1l-2 2-1 1-1 2v4l3-1v-2l1-1h2v1l1 1h1v1l-2 1-3 2-2 1h-3l-2 3-1 1 1 1-1 2h-2l-1 2 1 1 1 2h1l1 1c0 2-1 2-3 2h-2l-2 1v1l-2 1h-1v-1l1-1 1-1-1-1h-1v1l-1 2-1 1-1 1-1 1h-15l-1 1h-1v1h-1l-1-1h-7l-1 1-3-1-1-1h-1l-1 1-2 2h-4l-2-1v2l-2 1h-4l-2 1-2 1-2 1h-6l-1 1-3-2v-1l-1-2 2-4h2l2-1 1-2v-1h5l1-1c0-2 1-2 2-2h1v-4l-2-2-2-1-1 1c-1 0-2-1-1-2v-2c0-1-1-2-2-1h-1l-1-1-2-2v-3l-2-1v2l-1 1-1 1-2-1v-2l1-1 1-2v-1l2-1h1v-1h-1l-1-1v-3l1-1 1-1 3-1h1v1l1 1h1l1-3v-1l2-1 1 1h2v-1h1l1 2 2 1 2-2-1-1v-1m113-18-1-1-1 1v2h-2v-2l-2-1-2 1h-2l-1 1v1l-1 1h-1l-2-1-2 1-1 1-2 1h-1l-1 1-1 1-1 2-1-1v-2l-1-1v1h-1v4h-2v1h-1v2h5l2-1h1l1 1 2 1 1-1h2l2 2-1 2v2h1l2 1h2l3-1h1v-6l2-2 1-1 2-4v-1l2-1v1l1-1-1-1-1-1v-2M532 159h1l4-1h6l1 1h3l3-1 4 1h1l-2 1h-6l-3 1h-5l-3 1-2-1-2-2m-10 137c0 1 1 2 2 1h5l1 1 2 1 2 1h1l1-1-1-1-2-2h1l1-2 1-1c1-1 2 0 3 1l1 2 1 1h2l2 2h3l3-3h1l2 1h1l2 2 1-1v-1l1-2h1l1-1 1-2v-4l1-2v-1h2l1 1h2v-7l2-3c0-1-1-2-2-1v1l-2 2-2 2-2 1-1 2h-1l1-3 1-1 1-1 1-1v-2l-1 1v1l-2 2-1-1-1-1v-1l-1-1-3 1-1-1h-1v1h-2c-1-1-2 0-2 1l1 1 2-1h1v1l-1 1v2l1 2v1l-2-1v-3h-2l-1 1-1 1-2 2h-1l-1-1v-1h-1l-2 1v4h-1l-2-1-1-3h1v-1h-1l-1 1-1-1 1-2-1-2h-1l-2-2 1-2v-1l-1-1h-3v3l1 5-1 3-1 4v2l-1 2-1 2-3 3m81-38h2v-2l-1-2v-1l-2-1-1-1-1 2v4l2 1h1m1 14 1-1v-2l2-1 1-2-1-1h-1l-1 1v2h-3l-1 1v3l1 1 2-1m1 6v3l1 2h2v-2c1-1-1-3-2-3h-1m-31 10 1-1-1-2-3 1v1l1 1h2m12-17h-1l-1 1v1l1 1h1l1-2-1-1m31 13h1l1-2v-1h-2v3m-38-7h1l1-1-1-1h-1v2m16-10-1 1v1l1 1 1-2-1-1m-20 16v1l1-1v-1h-1v1m13-8h1v-2h-1v2m8 4h-1v2h1v-2m-49 0-1-1-1 1 2 1v-1" opacity=".2" fill="#a29934"/><path d="m532 159-2-1-1 1v-1l3-1h40l1 2-3-1h-2l-3 1h-9l-2 1-4-1h-18m181 127v-32l1-4v-5l1-4h-2v3l-1 7v3l-1 7 1 2v1l1 2v20m2-79v3l-1 6 1 2h1v-7l1-4v-11l1-5v-2l-1-3v-3l1-6 1-4-1 2-2 7v22l-1 2v1m0 18v-3h1v-1l-1-1h-2v16l2 1v-12m-43-69h-34l-3 1h-1 37v-1m3 1h4l6-1h2l3 1h15-2l-3-1h-28l3 1m39 150 1-3v-5l-1-3v-2l-1-2 1 1v15-1m-83-150h-7v1l4-1h4-1m-12 0h-5l-1 1 2-1 2 1h3l-1-1m-28 1h-1v1h1l2-1h-2" opacity=".2" fill="#a29934"/>
	</g>
	<g id="_olive">
	  <!-- Branch -->
	  <path d="m732.4 246.9c-22.1-3.6-36.6-5.8-41.9-6.6-2.8-.4-10.2-2.9-16.8-5.1-5.2-1.7-9.7-3.2-11.2-3.5 0 0-2.3 17.4 5.7 16.9 5.6-.4 12.1-.8 16.4-.8-1.4.7-14.1 8.7-14.1 8.7s-14.8 9.6-16.2 13.1c-2.5 6.2 2.4 12.3 6.1 8.8 1.9-1.8 31.1-28.9 31.6-29.2 10.6 3.3 25.1 7.5 30.2 7.5.7 0 1.2-.1 1.5-.2 1.4-.7 2.5-1.4 3.4-1.9 2.2-1.3 3.3-1.9 5.5-1.9 1.3 0 2.3-1 2.4-2.4.1-1.5-.8-3.1-2.6-3.4" fill="#000"/>
	  <path d="m732.2 248.1c-22.1-3.6-36.5-5.8-41.9-6.6-2.9-.4-22.5-6.9-24.5-7.6 3.1 2 12.8 12.5 8.7 13.1 3.8-.2 14.2 0 14.4.1-5.8 2.5-30.3 18.8-32.3 23.3-1.6 3.6 1.9 6.4 4.9 3.8 2.1-1.9 29.3-26.1 30.1-26.5 17.6 5.5 29.8 8.4 31.5 7.6 1.4-.7 2.4-1.3 3.4-1.9 2.3-1.3 3.7-2.1 6.1-2.1.7 0 1.1-.7 1.1-1.3.1-.7-.3-1.7-1.5-1.9m-15 1.5c-5.5-1-23.7-5-23.6-5.1 0-.1 18.8 2.1 24.1 2.8 1 .1 7.4.8 10.4 2-3.4 1.6-9.7.5-10.9.3" fill="#fff"/>

	  <!-- Leaf -->
	  <path d="m681.8 243.9c-.1-.1-.1-.2-.2-.3-2.7-3.5-11.8-9.1-13.6-9.8-9.2-3.7-19.7-8.9-30.9-14.4-20.1-10-43-21.3-63.9-26.4-38.2-9.4-60.4-4.1-65.1-1.5l-.9.5.7.8c.1.1.4.5.6.9 7.1 10.3 19 19.5 35.4 27.4 19.3 9.2 43.7 16.2 73 20.9-2.5 0-4.6 0-6.1 0-23.8.1-47.9 3-66.3 8-36.3 9.9-48.2 23.9-49.5 25.5-.3.3-.3.9-.2 1.4.1.5.5 1.1 1.1 1.3.7.2 1.5.5 2.3.8 5.8 2.2 15.1 5.6 30.9 5.6 20.2 0 51.1-5.6 99.2-26.8 6.5-2.9 28-7.5 52.5-10.3.5-.1 1.4-1.5 1.6-2.3.3-.6 0-1.1-.6-1.3" />

	  <!-- Outline -->
	  <path d="m583 199c14 6.6 13.5 16.2 14.8 17.3-9.8-5.9-11.8-12.9-14.8-17.3m24.8 20.4c-1.2-1.1-.3-9.7-14.4-16.8 2.6 4.4 4.8 11 14.4 16.8m10 3c-1.1-.7 0-9.5-12.2-15 2.1 4.8 4.6 11 12.2 15m10.6 3.9c-1-.9-.3-9.1-11-13.7 1.9 4.3 4.1 10 11 13.7m9.9 3.6c-1.5-.6 1.4-6.2-10.8-11.8 1.7 3.3 4.5 9.1 10.8 11.8m11.6 3.9c-1.6-3.1-4.8-8.5-11-10 .6.7.9 4.9 11 10m-11.3-10c.1 0 .2 0 .2.1s-.1-.1-.2-.1m22.8 13.4c-1-.6-2-5.1-9.8-6 1.2.6 2.4 4.3 9.8 6m-83-27c-1.3-.6-.4-9.3-13.7-15.8 2.6 4.8 5.3 11 13.7 15.8m9.2 2.7c-1.3-.5-.2-9.5-13.7-15.6 2.6 4.7 5.2 11.2 13.7 15.6m-29-9.7c-1.2-.8-2-8.6-13-11.9 2.3 3.3 6.2 9.6 13 11.9m10 3.6c-1.3-.5-1.1-9.1-14.6-14.7 3 4.4 6.1 10.4 14.6 14.7m-20.6-6.4c-1.9-3.1-5.9-9.3-12.9-10.4 2.5 3.1 6.2 8.3 12.9 10.4m-11.2-3.9c-1-.3-1.2-5.6-11.4-6.4 1.2.1 1.2 4.8 11.4 6.4m-17.8-4c.3.2.6.3.9.5.6.3 1.2.5 1.2.5s.6.2 1.3.4c.3.1.7.1 1 .2.3 0 .6 0 .7.1.5 0 .8-.2 1.2-.1-.4-.2-.5-.5-.9-.8-.1-.1-.3-.2-.6-.4-.3-.2-.6-.3-.9-.5-.6-.3-1.2-.5-1.2-.5s-.6-.2-1.3-.3c-.3-.1-.7-.1-1-.1-.3 0-.6 0-.7 0-.5 0-.8.2-1.2.1.4.1.6.4 1 .7 0-.1.3 0 .5.2m154 50.9c-28.4-7.5-138-44.8-159-48.9 5.3 8.1 7.1 6.3 16.3 5.2-1.7 1.1-4.2 3-6.9 4.5 3.6 2 9.5-.3 14.6 0-2 1.2-5.5 2.5-8.3 4.6 4.7 3.1 11.5-.1 17.7-.7-2.6 1.6-6 3.8-9.7 5.5 5.8 4.2 14.3-.6 21-2.2-3.1 2.3-7.1 5.1-11.4 7.1 5.7 3.3 14.4-1.2 21-2.8-3.1 2.3-6.9 5-11.3 7 4.7 2.1 17-2.4 22.6-4.2-3.7 2.7-8.1 5.6-13.3 7.8 7.1 2.1 16.3-2 23.8-3.6-3.7 2.4-8.5 5.2-13.4 7.2 8 3.5 17-1.6 25.4-3.8-3.5 2.6-7.6 5.3-12.5 7.6 2.5.6 5.7 2.6 9.1-.2 4.9-1.8 9.2-2.5 14-5.7-2.9 3.2-6.4 6.4-11 9.1 6.2 1.1 13-2.4 20-3.6-2.8 1.9-5.9 4-10 5.9 5.8 1.9 12.3-.6 18.4-2.2-1.6 1.5-4.2 3.3-7.2 4.5 6.2 2.1 13.3-.6 18.9-3.5-1.6 1.1-4 3.4-6.6 5.4 4.8 1 11.7.4 16.4-2.7-.9.7-2.4 2.1-4.2 3.6 15.6.7 46 3.7 25.4-.9m-93 15.5c-9-.4-18-6-23.9-9.6 8.7-.8 22.9 9.1 23.9 9.6m-11.6-11.3c5.3 4 14.3 9.1 22.9 9.4-1-.5-14.5-9.8-22.9-9.4m31.5 6.3c-.8-.4-10.3-8.2-18.2-7.2 3.5 3.1 10.5 7.6 18.2 7.2m-5.2-8.9c3.2 3.1 8.9 7.4 16 7.4-.8-.4-9.4-8.1-16-7.4m26 6c-.6-.3-7.4-6.8-13.8-6 2.5 2.3 7.4 6.6 13.8 6m10.7-1.3c-.6-.3-7.8-6.1-14.2-5.5 2.8 2 7.9 5.8 14.2 5.5m-1.6-5c1.1.3 2.9 3.7 9.9 3.5-.4-.2-3.8-4.2-9.9-3.5m17.5.4c-3-.1-8-.6-7.7-.5 2.6 1.3 6.4 3.2 11.4 2.5-.6-.2-3.7-2-3.7-2m-109 9.2c5.1 3.4 13.9 8.1 22 8.2-1-.5-13.8-8.9-22-8.2m9.3-2.9c4.9 3.8 13.5 8.9 21.9 9.2-1-.5-13.7-9.7-21.9-9.2m-6.7 14.2c-1.6-.8-10.4-6.3-18.6-5.3 4.3 2.6 11 5.9 18.6 5.3m9.9-1.5c-1.8-1-10.6-7.2-20.3-6.6 4 2.6 12.8 7 20.3 6.6m-20 4c-1.5-.6-11.7-4.8-16.6-3.5 3.9 1.9 9.9 4.4 16.6 3.5m-11 1.8c-.8-.1-8.5-3.3-13.3-.7 2.8 1 7.8 3.1 13.3.7m-23 6.4c5.9.7 15 5 20 .1-1.7 1.9-2.4 2.7-3.6 3.9 6.9.9 8.7-3.5 11.4-5.8-1.9 3.7-2.5 4.9-3.7 6.9 7.8-1.3 13.8-7.7 14.7-8.1-1.6 3-4.3 6.9-5.4 8.4.6 0 1.2 0 1.7 0 7.7-1.7 10.8-7.6 15.4-10.9-1.9 3.9-4.1 7.6-5.9 10.2.8-.1 1.6-.2 2.4-.3 6.8-2.6 10.9-7.7 14.9-11-2.2 3.8-3.9 7.1-5.6 9.8 1.5-.3 3-.6 4.5-.9 5.5-2.3 8.9-6.6 12-9.8-1.7 4.5-2.2 5.8-3.1 7.8.1 0 .3-.1.4-.1 6.6-3.4 9.8-9.1 13.7-11.6-2.4 3.6-3.4 6.7-4.6 9.2.1 0 .2-.1.3-.1 7.6-2.6 11.9-8.7 16-11.9-3.6 6.2-4.2 6.6-5.7 8.7 1.2-.4 2.3-.7 3.5-1.1 5.9-2.4 7.7-6.3 10.9-10.2-1.4 3.1-2.4 5.7-3.2 7.6 1.1-.4 2.2-.8 3.3-1.1 5.3-2.2 7.9-5.2 10.4-7.8-1 1.5-1.7 3.1-2.7 5 5.9-1.5 9.4-5.1 11-7.5-.2 1.8-.2 2.9-.2 3.3 7.2-2.5 17.8-6.3 28.6-8.8-9.8 1.2-24.5 3-28.7 3.7-29 5-113 19-123 22.5" fill="#fff" />

	  <!-- Olive -->
	  <path d="m657 329c-44 39.5-87-8-47-48.6 44.5-39.5 87 8 47 48.6" />

	  <!-- Sheen -->
	  <path d="m652.3 276.3c-2 .4-3.9.9-5.7 1.4 1.3 1.2 2.4 2.4 3.3 3.4-2.1-1.1-3.9-2-5.4-2.7-1.6.5-3.2 1.1-4.7 1.7 2.6 2.1 3.6 4.4 4.3 5.1-2.6-1.5-4.9-2.8-7-3.9-1.6.7-3.1 1.5-4.6 2.3 4.3 2.5 7.8 5.8 10.1 9-5.5-3.3-9.7-5.6-12.9-7.3-1.5 1-3 2-4.3 3 4.2 2.1 7.2 4.9 9.6 7.4-4.4-1.7-8.5-3.7-12.1-5.4-1.1.9-2.1 1.9-3 2.9 5.2 2.4 7.8 6.1 8.5 6.2-4.2-1.2-7.7-2.6-10.5-3.9-.9 1-1.6 2.1-2.4 3.2 4.8 2.1 7.7 4.4 8.5 4.6-4-.2-7.3-1.1-10-2.3-.6 1-1.1 2.1-1.6 3.1 2.9 1.4 5.4 2.9 7.2 4-3 0-5.7-.7-8.1-1.8-.5 1.3-.8 2.7-1.1 4 2.5 1.2 4.6 2.4 6.1 3.4-2.3-.2-4.5-.7-6.4-1.4-.2 1.5-.2 3-.2 4.5 4.1 1.5 4.6 2.7 5.4 2.8-2.1-.2-3.8-.4-5.3-.7.2 1.6.5 3.2 1 4.8 3.5 1 4.5 1 6.5 2-2.3.2-4.3.2-5.9 0 .5 1.4 1.2 2.8 2 4.2 7.1 1.8 6.3 1.5 7.2 1.8-11.8 1.8-12.6-2.9-13.4-3.4 2.1.5 3.9 1 5.3 1.4-1.5-1.4-2.8-2.9-3.7-4.5-4.4-1.3-5.2-3.9-5.6-4 1.6.6 3 1.1 4.2 1.5-.7-1.6-1.2-3.2-1.4-4.9-2.9-1.2-3.5-2.6-4.1-2.9 1.5.3 2.8.6 3.9.8-.1-1.7.1-3.4.4-5.1-1.9-1.1-3.4-2.2-4.5-3.2 1.7.4 3.4.9 4.9 1.4.4-1.4.9-2.8 1.5-4.2-1.9-1.2-3.6-2.4-4.8-3.3 2 .3 3.9.8 5.7 1.4.6-1.1 1.2-2.2 1.9-3.3-2.9-1.8-4.6-3.5-5.2-3.7 2.4.4 4.5 1 6.5 1.7.8-1.1 1.7-2.2 2.6-3.3-3.2-1.6-5.1-2.8-5.7-2.9 2.9-.1 5.4.2 7.5.8 1-1.1 2.1-2.2 3.2-3.2-3.2-1.6-5.5-3-6.6-3.4 3.3.1 6.2.7 8.7 1.6 1.4-1.2 2.9-2.3 4.3-3.3-7-3.5-8.1-3.1-10.1-4.1 4.6-.2 8.9.7 12.7 2.4 1.5-.9 2.9-1.7 4.4-2.5-3.6-1.9-5.9-2.9-6.4-3 4 0 7 .7 9.3 1.7 1.5-.6 3-1.2 4.5-1.6-3.3-1.7-4.4-2.4-5.2-2.6 3.3-.3 6 .5 8.2 1.8 2.4-.5 4.7-.6 6.9-.5-1.6-1-3-1.7-4.4-2.3 7.7.1 11 5.6 12.9 9.2-2.4-2.5-4.7-4.4-6.9-5.9m-8.3 8.8c.1.1.2.2.3.2-.1 0-.2-.1-.3-.2" fill="#fff" />
	</g>
</g>
</svg>
